<svg width="219" height="190" viewBox="0 0 219 190" fill="none" xmlns="http://www.w3.org/2000/svg">
<g clip-path="url(#clip0)" filter="url(#filter0_d)">
<path d="M195 125.921C195 106.383 181.264 90.0814 162.995 86.2682C162.995 85.7994 163.066 85.3638 163.066 84.895C163.066 58.2024 141.563 36.5375 115.04 36.5375C94.8891 36.5449 77.6723 49.0957 70.559 66.8144C66.4275 64.289 61.6802 62.9505 56.838 62.9459C42.1352 62.9459 30.2599 74.9171 30.2599 89.7196C30.2551 94.0704 31.3038 98.3577 33.3164 102.215C25.6973 103.381 18.7496 107.243 13.7367 113.098C8.72378 118.953 5.97849 126.412 6 134.12C6 151.96 20.3559 166.412 38.0672 166.412H156.746C159.332 166.411 161.902 166.003 164.361 165.205C173.122 163.019 180.898 157.963 186.451 150.843C192.003 143.724 195.013 134.95 195 125.921Z" fill="white"/>
<g opacity="0.2">
<path opacity="0.2" d="M195 125.921C195 106.383 181.264 90.0814 162.995 86.2682C162.995 85.7994 163.066 85.3638 163.066 84.895C163.066 58.2024 141.563 36.5375 115.04 36.5375C94.8891 36.5449 77.6723 49.0957 70.559 66.8144C66.4275 64.289 61.6802 62.9505 56.838 62.9459C42.1352 62.9459 30.2599 74.9171 30.2599 89.7196C30.2551 94.0704 31.3038 98.3577 33.3164 102.215C25.6973 103.381 18.7496 107.243 13.7367 113.098C8.72378 118.953 5.97849 126.412 6 134.12C6 151.96 20.3559 166.412 38.0672 166.412H156.746C159.332 166.411 161.902 166.003 164.361 165.205C173.122 163.019 180.898 157.963 186.451 150.843C192.003 143.724 195.013 134.95 195 125.921Z" fill="black"/>
</g>
</g>
<defs>
<filter id="filter0_d" x="0" y="-7" width="219" height="219" filterUnits="userSpaceOnUse" color-interpolation-filters="sRGB">
<feFlood flood-opacity="0" result="BackgroundImageFix"/>
<feColorMatrix in="SourceAlpha" type="matrix" values="0 0 0 0 0 0 0 0 0 0 0 0 0 0 0 0 0 0 127 0"/>
<feOffset dx="9" dy="8"/>
<feGaussianBlur stdDeviation="7.5"/>
<feColorMatrix type="matrix" values="0 0 0 0 0 0 0 0 0 0 0 0 0 0 0 0 0 0 0.25 0"/>
<feBlend mode="normal" in2="BackgroundImageFix" result="effect1_dropShadow"/>
<feBlend mode="normal" in="SourceGraphic" in2="effect1_dropShadow" result="shape"/>
</filter>
<clipPath id="clip0">
<rect width="189" height="189" fill="white" transform="translate(6)"/>
</clipPath>
</defs>
</svg>
